<svg preserveAspectRatio="none" width="100%" height="100%" overflow="visible" style="display: block;" viewBox="0 0 24 24" fill="none" xmlns="http://www.w3.org/2000/svg">
<g id="Frame 1000003117" clip-path="url(#clip0_0_21)">
<rect id="Rectangle 143" x="0.41774" y="12.0627" width="15.9099" height="15.9099" transform="rotate(-45 0.41774 12.0627)" stroke="var(--stroke-0, #FA642D)" stroke-width="1.06066"/>
<rect id="Rectangle 144" x="3.18262" y="12.0625" width="12.0003" height="12.0003" transform="rotate(-45 3.18262 12.0625)" fill="var(--fill-0, #F0F0F0)"/>
<g id="Rectangle 145" filter="url(#filter0_d_0_21)">
<rect x="4.24316" y="12.0625" width="10.5003" height="10.5003" transform="rotate(-45 4.24316 12.0625)" fill="url(#paint0_linear_0_21)"/>
<rect x="4.24316" y="12.0625" width="10.5003" height="10.5003" transform="rotate(-45 4.24316 12.0625)" fill="url(#paint1_linear_0_21)"/>
</g>
<path id="Vector 10" opacity="0.75" d="M10.6064 12.3453L11.6671 7.81982L12.7278 12.3453L11.6671 16.3051L10.6064 12.3453Z" fill="var(--fill-0, white)"/>
<path id="Vector 11" opacity="0.75" d="M11.9503 13.1233L7.42485 12.0627L11.9503 11.002L15.9101 12.0627L11.9503 13.1233Z" fill="var(--fill-0, white)"/>
</g>
<defs>
<filter id="filter0_d_0_21" x="0.000523567" y="0.394992" width="23.335" height="23.335" filterUnits="userSpaceOnUse" color-interpolation-filters="sRGB">
<feFlood flood-opacity="0" result="BackgroundImageFix"/>
<feColorMatrix in="SourceAlpha" type="matrix" values="0 0 0 0 0 0 0 0 0 0 0 0 0 0 0 0 0 0 127 0" result="hardAlpha"/>
<feOffset/>
<feGaussianBlur stdDeviation="2.12132"/>
<feComposite in2="hardAlpha" operator="out"/>
<feColorMatrix type="matrix" values="0 0 0 0 0.971792 0 0 0 0 0.813478 0 0 0 0 0.75591 0 0 0 1 0"/>
<feBlend mode="normal" in2="BackgroundImageFix" result="effect1_dropShadow_0_21"/>
<feBlend mode="normal" in="SourceGraphic" in2="effect1_dropShadow_0_21" result="shape"/>
</filter>
<linearGradient id="paint0_linear_0_21" x1="14.7432" y1="12.0625" x2="4.24316" y2="22.5625" gradientUnits="userSpaceOnUse">
<stop stop-color="#FA642D"/>
<stop offset="0.495192" stop-color="#FF936B"/>
<stop offset="1" stop-color="#DF4912"/>
</linearGradient>
<linearGradient id="paint1_linear_0_21" x1="14.7432" y1="22.5625" x2="4.24341" y2="12.0625" gradientUnits="userSpaceOnUse">
<stop stop-color="#FA642D"/>
<stop offset="0.495192" stop-color="#FF936B"/>
<stop offset="1" stop-color="#DF4912"/>
</linearGradient>
<clipPath id="clip0_0_21">
<rect width="24" height="24" fill="white"/>
</clipPath>
</defs>
</svg>
