<svg preserveAspectRatio="none" width="100%" height="100%" overflow="visible" style="display: block;" viewBox="0 0 49.0001 49" fill="none" xmlns="http://www.w3.org/2000/svg">
<g id="Frame 1000003118">
<path id="Subtract" d="M24.5001 0C38.031 0 49.0001 10.969 49.0001 24.5C49.0001 38.031 38.031 49 24.5001 49C10.9691 49 7.07324e-05 38.031 7.07324e-05 24.5C7.07324e-05 10.969 10.9691 0 24.5001 0ZM24.5001 3.2666C12.7732 3.2666 3.26669 12.7732 3.26667 24.5C3.26667 36.2268 12.7732 45.7334 24.5001 45.7334C36.2269 45.7333 45.7335 36.2268 45.7335 24.5C45.7335 12.7732 36.2269 3.26667 24.5001 3.2666Z" fill="var(--fill-0, white)"/>
<path id="Subtract_2" d="M24.5001 0C30.403 0 36.1076 2.13149 40.5645 6.00195C45.0213 9.8724 47.9306 15.2218 48.7579 21.0664C49.5852 26.911 48.275 32.8581 45.0675 37.8135C41.8599 42.7687 36.9708 46.3988 31.2999 48.0371C25.629 49.6754 19.5572 49.2117 14.2012 46.7305C8.84522 44.249 4.56447 39.9167 2.14753 34.5312C-0.269281 29.1459 -0.660282 23.0688 1.04597 17.418C2.75225 11.7672 6.44124 6.92226 11.4346 3.77441L13.1759 6.53613C7.22161 10.2975 3.26668 16.9366 3.26667 24.5C3.26667 36.2268 12.7732 45.7334 24.5001 45.7334C36.2269 45.7333 45.7335 36.2268 45.7335 24.5C45.7335 12.9564 36.5215 3.56408 25.0479 3.27344L24.5001 3.2666V0Z" fill="var(--fill-0, #D33030)"/>
</g>
</svg>
