<svg width="1390" height="320" viewBox="0 0 1390 320" fill="none" xmlns="http://www.w3.org/2000/svg">
<path d="M1168.87 254.998V118.997H1196.73V134.997H1201.15C1203.72 130.215 1207.86 125.986 1213.56 122.307C1219.26 118.629 1226.99 116.79 1236.73 116.79C1246.85 116.79 1254.94 118.905 1261.01 123.135C1267.26 127.181 1271.95 132.422 1275.08 138.859H1279.49C1282.62 132.606 1287.12 127.365 1293.01 123.135C1299.08 118.905 1307.63 116.79 1318.67 116.79C1327.49 116.79 1335.31 118.629 1342.11 122.307C1348.92 125.802 1354.34 131.135 1358.39 138.307C1362.44 145.296 1364.46 154.032 1364.46 164.515V254.998H1336.04V166.722C1336.04 158.446 1333.75 152.101 1329.15 147.687C1324.73 143.089 1318.39 140.79 1310.11 140.79C1301.29 140.79 1294.21 143.641 1288.87 149.342C1283.54 155.043 1280.87 163.227 1280.87 173.894V254.998H1252.46V166.722C1252.46 158.446 1250.16 152.101 1245.56 147.687C1241.15 143.089 1234.8 140.79 1226.53 140.79C1217.7 140.79 1210.62 143.641 1205.29 149.342C1199.95 155.043 1197.28 163.227 1197.28 173.894V254.998H1168.87Z" fill="white"/>
<path d="M1007.86 187.687V183.549C1007.86 169.204 1010.71 156.974 1016.41 146.859C1022.3 136.744 1030.02 128.928 1039.59 123.411C1049.15 117.893 1059.63 115.135 1071.04 115.135C1084.28 115.135 1094.39 117.618 1101.38 122.583C1108.55 127.549 1113.8 132.882 1117.11 138.583H1121.52V118.997H1149.11V282.86C1149.11 291.136 1146.62 297.757 1141.66 302.723C1136.88 307.688 1130.25 310.171 1121.8 310.171H1030.21V285.343H1112.97C1118.3 285.343 1120.97 282.584 1120.97 277.067V233.756H1116.55C1114.53 237.067 1111.68 240.469 1108 243.963C1104.32 247.458 1099.45 250.308 1093.38 252.515C1087.5 254.722 1080.05 255.826 1071.04 255.826C1059.63 255.826 1049.06 253.159 1039.31 247.826C1029.75 242.308 1022.12 234.492 1016.41 224.377C1010.71 214.078 1007.86 201.848 1007.86 187.687ZM1078.76 230.998C1091.08 230.998 1101.2 227.136 1109.11 219.412C1117.2 211.503 1121.24 200.653 1121.24 186.86V184.377C1121.24 170.216 1117.29 159.365 1109.38 151.825C1101.47 144.101 1091.27 140.238 1078.76 140.238C1066.62 140.238 1056.51 144.101 1048.42 151.825C1040.51 159.365 1036.55 170.216 1036.55 184.377V186.86C1036.55 200.653 1040.51 211.503 1048.42 219.412C1056.51 227.136 1066.62 230.998 1078.76 230.998Z" fill="white"/>
<path d="M965.97 254.998V118.997H994.385V254.998H965.97ZM980.315 100.514C974.798 100.514 970.108 98.7669 966.246 95.2727C962.568 91.5945 960.729 86.9048 960.729 81.2036C960.729 75.5024 962.568 70.9046 966.246 67.4104C970.108 63.7322 974.798 61.8931 980.315 61.8931C986.017 61.8931 990.706 63.7322 994.385 67.4104C998.063 70.9046 999.902 75.5024 999.902 81.2036C999.902 86.9048 998.063 91.5945 994.385 95.2727C990.706 98.7669 986.017 100.514 980.315 100.514Z" fill="white"/>
<path d="M867.59 258.86C856.372 258.86 845.981 256.102 836.418 250.584C826.854 245.067 819.13 237.159 813.245 226.86C807.544 216.377 804.693 203.779 804.693 189.067V184.929C804.693 170.4 807.544 157.894 813.245 147.411C818.946 136.928 826.579 128.928 836.142 123.411C845.705 117.894 856.188 115.135 867.59 115.135C876.418 115.135 883.774 116.238 889.66 118.445C895.729 120.652 900.694 123.503 904.556 126.997C908.418 130.307 911.361 133.802 913.384 137.48H917.798V61.8931H946.212V254.998H918.349V235.688H913.936C910.441 241.573 905.108 246.906 897.935 251.688C890.947 256.469 880.832 258.86 867.59 258.86ZM875.59 234.032C887.912 234.032 898.027 230.078 905.936 222.17C914.028 214.262 918.074 202.952 918.074 188.239V185.756C918.074 171.227 914.119 160.009 906.211 152.101C898.303 144.193 888.096 140.239 875.59 140.239C863.452 140.239 853.337 144.193 845.245 152.101C837.337 160.009 833.383 171.227 833.383 185.756V188.239C833.383 202.952 837.337 214.262 845.245 222.17C853.337 230.078 863.452 234.032 875.59 234.032Z" fill="white"/>
<path d="M719.608 258.86C709.861 258.86 701.125 257.205 693.401 253.895C685.861 250.584 679.792 245.711 675.194 239.274C670.78 232.837 668.573 225.021 668.573 215.825C668.573 206.446 670.78 198.722 675.194 192.653C679.792 186.4 685.953 181.71 693.677 178.584C701.585 175.457 710.505 173.894 720.436 173.894H761.816V165.066C761.816 157.158 759.425 150.813 754.643 146.032C749.862 141.25 742.505 138.859 732.574 138.859C722.827 138.859 715.378 141.158 710.229 145.756C705.08 150.353 701.677 156.331 700.022 163.687L673.539 155.135C675.746 147.779 679.24 141.158 684.022 135.273C688.987 129.204 695.516 124.33 703.608 120.652C711.7 116.974 721.448 115.135 732.85 115.135C750.505 115.135 764.39 119.641 774.505 128.652C784.62 137.664 789.678 150.445 789.678 166.997V222.998C789.678 228.515 792.253 231.274 797.402 231.274H808.988V254.998H787.747C781.31 254.998 776.069 253.343 772.023 250.032C767.977 246.722 765.954 242.216 765.954 236.515V235.688H761.816C760.344 238.446 758.137 241.665 755.195 245.343C752.252 249.021 747.93 252.239 742.229 254.998C736.528 257.573 728.988 258.86 719.608 258.86ZM723.746 235.412C735.149 235.412 744.344 232.193 751.333 225.756C758.321 219.136 761.816 210.124 761.816 198.722V195.963H722.091C714.551 195.963 708.482 197.618 703.884 200.929C699.286 204.055 696.988 208.745 696.988 214.998C696.988 221.251 699.378 226.216 704.16 229.894C708.942 233.573 715.47 235.412 723.746 235.412Z" fill="white"/>
<path d="M596.56 254.998V118.997H624.422V134.997H628.836C631.043 129.296 634.537 125.158 639.319 122.583C644.285 119.825 650.354 118.445 657.526 118.445H673.802V144.101H656.423C647.227 144.101 639.687 146.675 633.802 151.825C627.917 156.79 624.974 164.515 624.974 174.998V254.998H596.56Z" fill="white"/>
<path d="M501.622 258.86C491.875 258.86 483.139 257.205 475.415 253.895C467.874 250.584 461.805 245.711 457.208 239.274C452.794 232.837 450.587 225.021 450.587 215.825C450.587 206.446 452.794 198.722 457.208 192.653C461.805 186.4 467.966 181.71 475.69 178.584C483.599 175.457 492.518 173.894 502.449 173.894H543.829V165.066C543.829 157.158 541.438 150.813 536.656 146.032C531.875 141.25 524.518 138.859 514.587 138.859C504.84 138.859 497.392 141.158 492.242 145.756C487.093 150.353 483.691 156.331 482.035 163.687L455.552 155.135C457.759 147.779 461.254 141.158 466.035 135.273C471.001 129.204 477.53 124.33 485.622 120.652C493.714 116.974 503.461 115.135 514.863 115.135C532.519 115.135 546.404 119.641 556.519 128.652C566.634 137.664 571.691 150.445 571.691 166.997V222.998C571.691 228.515 574.266 231.274 579.415 231.274H591.002V254.998H569.76C563.323 254.998 558.082 253.343 554.036 250.032C549.99 246.722 547.967 242.216 547.967 236.515V235.688H543.829C542.358 238.446 540.151 241.665 537.208 245.343C534.266 249.021 529.944 252.239 524.243 254.998C518.541 257.573 511.001 258.86 501.622 258.86ZM505.76 235.412C517.162 235.412 526.358 232.193 533.346 225.756C540.335 219.136 543.829 210.124 543.829 198.722V195.963H504.104C496.564 195.963 490.495 197.618 485.897 200.929C481.3 204.055 479.001 208.745 479.001 214.998C479.001 221.251 481.392 226.216 486.173 229.894C490.955 233.573 497.484 235.412 505.76 235.412Z" fill="white"/>
<path d="M317.4 254.998V61.8931H394.091C405.861 61.8931 416.344 64.2839 425.539 69.0655C434.919 73.6633 442.183 80.284 447.332 88.9278C452.666 97.3876 455.332 107.595 455.332 119.549V123.135C455.332 135.089 452.574 145.388 447.057 154.032C441.723 162.676 434.459 169.296 425.263 173.894C416.068 178.492 405.677 180.791 394.091 180.791H347.194V254.998H317.4ZM347.194 153.756H391.056C401.539 153.756 409.907 150.997 416.16 145.48C422.413 139.963 425.539 132.422 425.539 122.859V120.1C425.539 110.353 422.413 102.721 416.16 97.2037C409.907 91.6864 401.539 88.9278 391.056 88.9278H347.194V153.756Z" fill="white"/>
<path d="M241.285 66.1675L223.262 135.915L206.151 202.14H151.985L169.096 135.915L187.119 66.1675H241.285Z" fill="white"/>
<path d="M75.6448 265.599H1.10449L22.0862 256.383L38.6563 218.561L94.4234 218.561L75.6448 265.599Z" fill="white"/>
<path d="M228.033 117.44H62.3931L73.16 83.0081L0 66.1675H239.518L228.033 117.44Z" fill="white"/>
<path d="M201.508 221.233L92.2094 221.321L113.107 170.054L214.235 169.971L201.508 221.233Z" fill="white"/>
</svg>
